<?xml version="1.0" encoding="utf-8"?>
<!-- Generator: Adobe Illustrator 21.1.0, SVG Export Plug-In . SVG Version: 6.00 Build 0)  -->
<svg version="1.1" id="Layer_1" xmlns="http://www.w3.org/2000/svg" xmlns:xlink="http://www.w3.org/1999/xlink" x="0px" y="0px"
	 viewBox="0 0 2340 1560" enable-background="new 0 0 2340 1560" xml:space="preserve">
<linearGradient id="SVGID_1_" gradientUnits="userSpaceOnUse" x1="1764.3561" y1="1196.3141" x2="546.4876" y2="343.2686" gradientTransform="matrix(1 0 0 -1 0 1560)">
	<stop  offset="0" style="stop-color:#F08080"/>
	<stop  offset="1" style="stop-color:#6EB9F5"/>
</linearGradient>
<path fill="url(#SVGID_1_)" d="M1777.92,331.978c-22.226-12.848-49.92-11.554-76.022,3.536l-531.908,307.088L638.112,335.515
	c-26.12-15.091-53.858-16.367-76.069-3.536c-22.215,12.837-34.954,37.477-34.954,67.632v760.786
	c0,30.156,12.739,54.806,34.954,67.636c10.147,5.87,21.464,8.79,33.237,8.776c13.982,0,28.643-4.131,42.836-12.305l531.904-307.095
	l531.883,307.095c14.175,8.174,28.821,12.305,42.796,12.305c11.784,0,23.09-2.928,33.226-8.776
	c22.251-12.83,34.986-37.477,34.986-67.636V399.614C1812.906,369.455,1800.171,344.816,1777.92,331.978z M1733.578,1151.198
	l-484.244-279.59l79.307-45.79l214.597,123.875c26.123,15.105,53.851,16.356,76.044,3.548
	c22.233-12.841,34.979-37.481,34.979-67.632V674.41c0-30.148-12.746-54.799-34.979-67.632c-22.23-12.841-49.92-11.543-76.044,3.536
	L606.41,1151.202V408.809l484.277,279.59l-79.321,45.8L796.783,610.307c-26.152-15.08-53.873-16.356-76.084-3.536
	c-22.211,12.834-34.954,37.484-34.954,67.632v211.199c0,30.152,12.743,54.788,34.954,67.632
	c22.211,12.841,49.946,11.561,76.084-3.548l936.798-540.881v742.392H1733.578z M1407.991,780.008l166.937-96.403V876.41
	L1407.991,780.008z M932.03,780.008L765.063,876.41V683.605L932.03,780.008z"/>
</svg>
